<svg width="435" height="252" viewBox="0 0 435 252" fill="none" xmlns="http://www.w3.org/2000/svg">
<g opacity="0.1" style="mix-blend-mode:screen">
<path fill-rule="evenodd" clip-rule="evenodd" d="M300.697 13.3797C300.697 49.8785 287.652 84.8821 264.432 110.691C241.212 136.499 209.718 150.998 176.88 150.998C144.042 150.998 112.549 136.499 89.329 110.691C66.109 84.8821 53.0641 49.8785 53.0641 13.3797C53.0641 13.3797 123.816 43.484 176.88 13.3797C229.944 -16.7247 300.697 13.3797 300.697 13.3797ZM342.118 106.951C335.473 121.573 327.444 134.849 318.385 146.048C312.717 151.545 307.958 156.7 303.543 161.48C280.403 186.541 266.746 201.331 181.499 201.331C92.5544 201.331 81.2428 189.192 53.7009 159.634L53.7006 159.633C49.8097 155.458 45.5948 150.934 40.7914 146.048C1.98663 106.577 0 66.8367 0 16.7776H35.3761C35.3761 88.0824 65.7889 122.337 65.7889 122.337C65.7889 122.337 93.0585 167.799 181.499 167.799C269.939 167.799 291.853 122.337 291.853 122.337C291.853 122.337 322.206 71.3048 322.206 12.5832H359.287C363.865 11.158 368.642 10.2791 373.51 9.98783C385.78 9.25373 397.973 12.2923 408.278 18.6525C418.584 25.0129 426.451 34.3557 430.714 45.294C434.977 56.2324 435.408 68.1831 431.942 79.3719C428.476 90.5605 421.298 100.391 411.475 107.404C401.651 114.416 389.705 118.237 377.411 118.299C365.117 118.361 353.129 114.66 343.228 107.747C342.854 107.486 342.484 107.221 342.118 106.951ZM360.481 43.0629C364.792 39.996 369.962 38.1807 375.364 37.8575C381.313 37.5015 387.225 38.9748 392.221 42.0587C397.218 45.1426 401.034 49.6727 403.1 54.9764C405.167 60.2801 405.376 66.0745 403.696 71.4997C402.014 76.9248 398.534 81.6913 393.772 85.091C389.008 88.4919 383.216 90.3441 377.256 90.3743C371.294 90.4045 365.482 88.6101 360.681 85.258C357.593 83.1017 355.029 80.3748 353.129 77.2643C356.383 66.2001 358.872 54.7199 360.481 43.0629ZM19.8519 226.498H342.753C348.832 226.498 353.761 232.131 353.761 239.081C353.761 246.03 348.832 251.664 342.753 251.664H19.8519C13.7724 251.664 8.84396 246.03 8.84396 239.081C8.84396 232.131 13.7724 226.498 19.8519 226.498Z" fill="#F9D9AA"/>
</g>
</svg>
