<svg width="28" height="26" viewBox="0 0 28 26" fill="none" xmlns="http://www.w3.org/2000/svg">
<path d="M5.00001 6.33333H23.3867C23.7592 6.33334 24.1277 6.41142 24.4682 6.56254C24.8087 6.71365 25.1138 6.93444 25.3638 7.21068C25.6138 7.48692 25.8031 7.81248 25.9196 8.16636C26.0361 8.52025 26.0771 8.89462 26.04 9.26533L25.24 17.2653C25.1742 17.9233 24.8663 18.5334 24.376 18.9772C23.8857 19.4209 23.248 19.6666 22.5867 19.6667H9.85334C9.23664 19.6669 8.63891 19.4534 8.16193 19.0625C7.68495 18.6716 7.35821 18.1274 7.23734 17.5227L5.00001 6.33333Z" stroke="#1D1D1D" stroke-width="2" stroke-linejoin="round"/>
<path d="M19.6667 25H22.3333M5.00001 6.33333L3.92001 2.00933C3.84778 1.721 3.68128 1.46508 3.44695 1.28221C3.21262 1.09934 2.92391 1.00001 2.62667 1H1.00001L5.00001 6.33333ZM9.00001 25H11.6667H9.00001Z" stroke="#1D1D1D" stroke-width="2" stroke-linecap="round" stroke-linejoin="round"/>
</svg>
