<svg width="21" height="21" viewBox="0 0 21 21" fill="none" xmlns="http://www.w3.org/2000/svg">
<path d="M9.57728 1.133C9.89728 0.289 11.1083 0.289 11.4293 1.133L13.4993 6.867C13.5715 7.05379 13.6987 7.21428 13.864 7.32729C14.0293 7.44031 14.225 7.50053 14.4253 7.5H19.5123C20.4523 7.5 20.8623 8.67 20.1233 9.243L16.5033 12.5C16.3411 12.6247 16.2226 12.7975 16.1648 12.9937C16.1069 13.1898 16.1127 13.3993 16.1813 13.592L17.5033 19.195C17.8253 20.095 16.7833 20.868 15.9953 20.314L11.0783 17.194C10.9099 17.0757 10.7091 17.0122 10.5033 17.0122C10.2975 17.0122 10.0967 17.0757 9.92828 17.194L5.01128 20.314C4.22428 20.868 3.18128 20.094 3.50328 19.195L4.82528 13.592C4.89386 13.3993 4.89963 13.1898 4.84179 12.9937C4.78394 12.7975 4.66543 12.6247 4.50328 12.5L0.883277 9.243C0.143277 8.67 0.555277 7.5 1.49328 7.5H6.58028C6.78057 7.50067 6.97634 7.4405 7.14169 7.32747C7.30705 7.21444 7.43418 7.05387 7.50628 6.867L9.57628 1.133H9.57728Z" fill="#FFD057" stroke="#FFD057" stroke-linecap="round" stroke-linejoin="round"/>
</svg>
